<svg width="30" height="30" viewBox="0 0 30 30" fill="none" xmlns="http://www.w3.org/2000/svg">
<path d="M15 2.8125C10.3418 2.8125 6.5625 6.40957 6.5625 10.8398C6.5625 15.9375 12.1875 24.0158 14.2529 26.8061C14.3387 26.9238 14.451 27.0197 14.5809 27.0858C14.7107 27.1518 14.8543 27.1863 15 27.1863C15.1457 27.1863 15.2893 27.1518 15.4191 27.0858C15.549 27.0197 15.6613 26.9238 15.7471 26.8061C17.8125 24.017 23.4375 15.9416 23.4375 10.8398C23.4375 6.40957 19.6582 2.8125 15 2.8125Z" stroke="white" stroke-width="2" stroke-linecap="round" stroke-linejoin="round"/>
<path d="M15.0195 15.0219C17.4465 15.0219 19.414 13.0544 19.414 10.6274C19.414 8.20033 17.4465 6.23283 15.0195 6.23283C12.5924 6.23283 10.6249 8.20033 10.6249 10.6274C10.6249 13.0544 12.5924 15.0219 15.0195 15.0219Z" stroke="white" stroke-width="2" stroke-linecap="round" stroke-linejoin="round"/>
</svg>
